HIERARCHY
ROOT Hips
{
 OFFSET 0.000000 0.000000 0.000000
 CHANNELS 6 Xposition Yposition Zposition Yrotation Xrotation Zrotation
 JOINT Chest
 {
  OFFSET 0.000000 9.585900 0.002600
  CHANNELS 3 Yrotation Xrotation Zrotation
  JOINT Chest2
  {
   OFFSET 0.000000 9.601200 -0.005300
   CHANNELS 3 Yrotation Xrotation Zrotation
   JOINT Chest3
   {
    OFFSET 0.000000 9.561800 0.000000
    CHANNELS 3 Yrotation Xrotation Zrotation
    JOINT Chest4
    {
     OFFSET 0.000000 9.552100 0.000000
     CHANNELS 3 Yrotation Xrotation Zrotation
     JOINT Neck
     {
      OFFSET 0.000000 14.453000 0.000000
      CHANNELS 3 Yrotation Xrotation Zrotation
      JOINT Head
      {
       OFFSET 0.000000 8.936500 -0.011300
       CHANNELS 3 Yrotation Xrotation Zrotation
       End Site
       {
        OFFSET 0.000000 17.073600 -0.006000
       }
      }
     }
     JOINT RightCollar
     {
      OFFSET -2.921100 9.558500 0.000000
      CHANNELS 3 Yrotation Xrotation Zrotation
      JOINT RightShoulder
      {
       OFFSET -13.519700 0.000000 0.000000
       CHANNELS 3 Yrotation Xrotation Zrotation
       JOINT RightElbow
       {
        OFFSET 0.000000 -29.696600 0.000000
        CHANNELS 3 Yrotation Xrotation Zrotation
        JOINT RightWrist
        {
         OFFSET 0.000000 -24.004700 0.000000
         CHANNELS 3 Yrotation Xrotation Zrotation
         End Site
         {
          OFFSET 0.000000 -17.728500 0.000000
         }
        }
       }
      }
     }
     JOINT LeftCollar
     {
      OFFSET 2.921100 9.558500 0.000000
      CHANNELS 3 Yrotation Xrotation Zrotation
      JOINT LeftShoulder
      {
       OFFSET 13.519700 0.000000 0.000000
       CHANNELS 3 Yrotation Xrotation Zrotation
       JOINT LeftElbow
       {
        OFFSET 0.000000 -29.696600 0.000000
        CHANNELS 3 Yrotation Xrotation Zrotation
        JOINT LeftWrist
        {
         OFFSET 0.000000 -24.004700 0.000000
         CHANNELS 3 Yrotation Xrotation Zrotation
         End Site
         {
          OFFSET 0.000000 -17.728500 0.000000
         }
        }
       }
      }
     }
    }
   }
  }
 }
 JOINT RightHip
 {
  OFFSET -7.771700 -0.012900 -0.001300
  CHANNELS 3 Yrotation Xrotation Zrotation
  JOINT RightKnee
  {
   OFFSET 0.000000 -40.869800 0.001200
   CHANNELS 3 Yrotation Xrotation Zrotation
   JOINT RightAnkle
   {
    OFFSET 0.000000 -39.717900 0.002100
    CHANNELS 3 Yrotation Xrotation Zrotation
    JOINT RightToe
    {
     OFFSET 0.000000 -4.965400 11.033500
     CHANNELS 3 Yrotation Xrotation Zrotation
     End Site
     {
      OFFSET 0.000000 -1.423100 5.872300
     }
    }
   }
  }
 }
 JOINT LeftHip
 {
  OFFSET 7.771700 -0.012900 -0.001300
  CHANNELS 3 Yrotation Xrotation Zrotation
  JOINT LeftKnee
  {
   OFFSET 0.000000 -40.869800 0.001200
   CHANNELS 3 Yrotation Xrotation Zrotation
   JOINT LeftAnkle
   {
    OFFSET 0.000000 -39.717900 0.002100
    CHANNELS 3 Yrotation Xrotation Zrotation
    JOINT LeftToe
    {
     OFFSET 0.000000 -4.965400 11.033500
     CHANNELS 3 Yrotation Xrotation Zrotation
     End Site
     {
      OFFSET 0.000000 -1.423100 5.872300
     }
    }
   }
  }
 }
}
MOTION
Frames: 9
Frame Time: 0.008333
-58.392456 57.807350 11.726681 179.719864 -50.657051 -3.596288 2.595843 20.830792 2.087369 1.359579 11.911588 1.098315 1.779176 14.864327 1.412184 1.331517 11.930768 1.121758 2.070076 18.381637 4.682687 2.290543 -1.655074 7.929539 7.758775 -4.076691 -4.149040 18.096118 -44.031303 -43.465076 -75.371928 -41.250949 130.752449 -1.402852 7.388186 -24.069948 -7.206240 -2.654772 -2.838574 -4.100436 -21.497819 10.605960 10.460173 -33.304774 -49.810145 -1.057043 -1.750410 17.806356 5.678123 -20.523182 -3.169015 -31.682220 74.405999 -36.045900 6.644259 -14.572310 12.991008 0.040922 0.130579 -0.022848 -7.292330 -18.639226 4.743048 86.823157 81.402059 86.112343 0.299674 -21.461226 -18.241612 -0.027733 0.044299 -0.012207
-58.394113 57.808305 11.721997 179.727266 -50.653684 -3.600799 2.573587 20.839554 2.082133 1.362421 11.908159 1.098577 1.724674 14.897361 1.431241 1.350983 11.915754 1.099600 2.067417 18.392156 4.670375 2.298158 -1.648178 7.905501 7.778339 -4.059653 -4.169992 17.853632 -43.874650 -43.373023 -75.487109 -41.236090 130.946882 -1.394698 7.419405 -24.067464 -7.187309 -2.666112 -2.856439 -4.084945 -21.509436 10.593245 10.473594 -33.295603 -49.824335 -1.057466 -1.742208 17.816622 5.677958 -20.525694 -3.165329 -31.747522 74.416163 -36.117149 6.639938 -14.620581 13.003274 0.039512 0.137074 -0.020780 -7.293262 -18.640126 4.735795 86.804278 81.398657 86.097072 0.303144 -21.464379 -18.240538 -0.027888 0.046875 -0.013780
-58.396389 57.809044 11.717289 179.732264 -50.648620 -3.598960 2.554921 20.846832 2.071942 1.361900 11.904111 1.099969 1.713389 14.904962 1.431366 1.338302 11.923380 1.103419 2.064254 18.403558 4.660509 2.296081 -1.627083 7.888280 7.791144 -4.043005 -4.185414 17.603003 -43.720398 -43.280625 -75.589103 -41.217850 131.135451 -1.386262 7.450781 -24.065192 -7.161364 -2.677166 -2.874171 -4.070714 -21.516759 10.586219 10.473468 -33.299379 -49.837009 -1.063610 -1.731641 17.825527 5.680960 -20.527735 -3.166384 -31.790187 74.431165 -36.169194 6.636334 -14.696825 13.021809 0.043170 0.106826 -0.011443 -7.292019 -18.643729 4.726445 86.773053 81.394849 86.069974 0.294936 -21.465992 -18.238405 -0.026485 0.047977 -0.014222
-58.398066 57.808953 11.713098 179.730252 -50.637347 -3.593470 2.544471 20.847027 2.065220 1.350640 11.908749 1.097777 1.725139 14.894648 1.428469 1.329695 11.929060 1.106677 2.050640 18.424058 4.661269 2.284366 -1.592300 7.876386 7.726174 -3.922742 -4.173425 17.418753 -43.663134 -43.239206 -75.674839 -41.192696 131.323936 -1.372388 7.481909 -24.057241 -7.152236 -2.674745 -2.882509 -4.060923 -21.527391 10.583854 10.468540 -33.305068 -49.844712 -1.078126 -1.708429 17.823992 5.684530 -20.534310 -3.165202 -31.813694 74.441856 -36.202133 6.613978 -14.787196 13.052878 0.044148 0.123591 -0.018479 -7.287217 -18.654444 4.719500 86.759070 81.393417 86.060837 0.293829 -21.469107 -18.237799 -0.025162 0.048947 -0.014639
-58.398217 57.808811 11.708813 179.735998 -50.625463 -3.600484 2.534771 20.843388 2.066464 1.341387 11.914582 1.099341 1.715927 14.898564 1.427811 1.335698 11.922536 1.100263 2.038391 18.442791 4.660702 2.280565 -1.570163 7.864591 7.680380 -3.835575 -4.166795 17.180914 -43.575753 -43.175969 -75.753524 -41.163333 131.518264 -1.356524 7.515905 -24.045952 -7.141800 -2.676122 -2.890767 -4.054091 -21.533535 10.581222 10.457393 -33.315052 -49.844142 -1.092674 -1.694985 17.819824 5.678201 -20.544108 -3.159865 -31.825957 74.445892 -36.220032 6.614850 -14.837495 13.062045 0.045064 0.119410 -0.015400 -7.286588 -18.666442 4.724479 86.750342 81.396718 86.055367 0.294397 -21.469880 -18.234483 -0.024405 0.049317 -0.014589
-58.398645 57.808480 11.704376 179.753620 -50.612528 -3.611992 2.519801 20.833987 2.063150 1.329468 11.924662 1.100233 1.708169 14.901444 1.427530 1.329423 11.924721 1.100220 2.036493 18.453320 4.651674 2.277840 -1.549609 7.855030 7.658041 -3.775209 -4.171251 16.910883 -43.463686 -43.102871 -75.836464 -41.133786 131.721284 -1.344197 7.554396 -24.040103 -7.121642 -2.687772 -2.906049 -4.047565 -21.529198 10.573554 10.425554 -33.364091 -49.819731 -1.082296 -1.672531 17.808263 5.666645 -20.556629 -3.161380 -31.862864 74.459216 -36.263831 6.618904 -14.880314 13.070370 0.041415 0.121508 -0.015380 -7.294782 -18.680140 4.723791 86.749244 81.409764 86.061778 0.301643 -21.471336 -18.239178 -0.016349 0.047511 -0.011413
-58.400130 57.809536 11.698405 179.777568 -50.611547 -3.619016 2.494067 20.845762 2.052184 1.323509 11.926256 1.098600 1.688073 14.915090 1.427259 1.334555 11.915014 1.093178 2.035321 18.465731 4.647189 2.276505 -1.531775 7.847808 7.656586 -3.751422 -4.178291 16.595220 -43.309255 -43.011638 -75.923282 -41.103423 131.930079 -1.333516 7.595812 -24.042755 -7.105897 -2.699090 -2.918019 -4.045452 -21.519335 10.564074 10.409882 -33.401537 -49.797723 -1.094854 -1.652226 17.797446 5.652443 -20.556684 -3.165261 -31.948859 74.480240 -36.365575 6.619207 -14.935210 13.084034 0.039587 0.122326 -0.014502 -7.300481 -18.682232 4.713391 86.772754 81.420915 86.086888 0.309474 -21.477289 -18.236368 -0.013204 0.046125 -0.009997
-58.399688 57.808793 11.693782 179.788012 -50.597759 -3.624581 2.482575 20.843348 2.049941 1.316862 11.928481 1.097696 1.692207 14.906313 1.424028 1.299526 11.951011 1.102505 2.058113 18.441127 4.629634 2.276195 -1.523659 7.844851 7.632247 -3.691473 -4.189435 16.326195 -43.206679 -42.953889 -76.014815 -41.071768 132.141864 -1.324188 7.634039 -24.048172 -7.069130 -2.739286 -2.933108 -4.046602 -21.505797 10.551905 10.391359 -33.440639 -49.774187 -1.105896 -1.635417 17.787967 5.644965 -20.570719 -3.160219 -31.988697 74.486785 -36.411253 6.597358 -14.978324 13.089719 0.032405 0.075448 -0.004636 -7.302470 -18.696376 4.714428 86.775528 81.423271 86.092199 0.305434 -21.481043 -18.235510 -0.013439 0.044060 -0.007137
-58.399006 57.807912 11.689009 179.800296 -50.583973 -3.631108 2.471273 20.843499 2.046462 1.310737 11.931350 1.097156 1.684347 14.909814 1.423237 1.302862 11.950262 1.098644 2.058202 18.437910 4.628537 2.275917 -1.516305 7.842643 7.574618 -3.607947 -4.186292 16.046075 -43.103099 -42.892688 -76.115324 -41.039329 132.358544 -1.315622 7.667231 -24.054632 -7.066258 -2.753507 -2.938195 -4.044713 -21.491343 10.542426 10.377882 -33.479407 -49.753358 -1.114789 -1.624434 17.782653 5.635727 -20.583836 -3.154475 -32.026448 74.492485 -36.455135 6.574856 -15.021011 13.092350 0.045009 0.080817 0.001934 -7.308810 -18.710348 4.713972 86.784124 81.421445 86.100605 0.303594 -21.483439 -18.235125 -0.011116 0.043797 -0.006285
